<svg version="1.0" xmlns="http://www.w3.org/2000/svg" width="1365.333" height="1365.333" viewBox="0 0 1024 1024"><path d="M0 512v512h1024V0H0v512zm243.7-145.8c2.1 6.3 99.1 298.2 99.8 300.5.4 1-5.6 1.3-27.4 1.3h-27.9l-12.8-38.3-12.9-38.2-48.7-.3-48.7-.2-12.7 38.5-12.7 38.5H84.2l50.9-152.8c28-84 51.1-153.3 51.4-154 .3-.9 6.8-1.2 27.8-1.2h27.3l2.1 6.2zm188.2 40.5c15.6 25.8 31.1 51.2 34.4 56.6 4.8 7.9 6.2 9.6 7.2 8.5.7-.7 14.9-24 31.6-51.8 16.7-27.8 31.6-52.6 33.3-55.3l2.9-4.7h58.9l-1.8 2.7c-1 1.6-7.6 12.2-14.7 23.8-7.2 11.5-27.8 45-45.9 74.2-18.1 29.3-33.1 53.9-33.4 54.6-.4 1 65.8 110.2 89.9 148.5l2.7 4.2-29.6-.2-29.7-.3-32.2-53.8c-17.7-29.5-32.4-53.9-32.7-54.2-.2-.3-15.2 24-33.2 54L406.7 668h-29.3c-16.2 0-29.4-.2-29.4-.4 0-.4 8.4-14.2 59-96.5 18.4-29.9 33.4-54.8 33.2-55.3-.1-.5-21.6-35.5-47.7-77.8S345 360.9 345 360.6c0-.3 13.2-.6 29.3-.6h29.3l28.3 46.7zM678 514v154h-54V360h54v154zm266-128v26h-89v256h-53V412h-89v-52h231v26z"/><path d="M213.4 424.5c-.3 1.1-9.2 29.4-19.8 63l-19.2 61 38.5.3c21.1.1 38.6 0 38.9-.2.4-.5-36.6-124.5-37.5-125.6-.2-.2-.6.5-.9 1.5z"/></svg>