<?xml version="1.0" standalone="no"?>
<!DOCTYPE svg PUBLIC "-//W3C//DTD SVG 20010904//EN"
 "http://www.w3.org/TR/2001/REC-SVG-20010904/DTD/svg10.dtd">
<svg version="1.0" xmlns="http://www.w3.org/2000/svg"
 width="1024.000000pt" height="1024.000000pt" viewBox="0 0 1024.000000 1024.000000"
 preserveAspectRatio="xMidYMid meet">
<metadata>
Created by potrace 1.14, written by Peter Selinger 2001-2017
</metadata>
<g transform="translate(0.000000,1024.000000) scale(0.100000,-0.100000)"
fill="#000000" stroke="none">
<path d="M0 5120 l0 -5120 5120 0 5120 0 0 5120 0 5120 -5120 0 -5120 0 0
-5120z m2437 1458 c21 -63 991 -2982 998 -3005 4 -10 -56 -13 -274 -13 l-279
0 -128 383 -129 382 -487 3 -487 2 -127 -385 -127 -385 -278 0 -277 0 509
1528 c280 840 511 1533 514 1540 3 9 68 12 278 12 l273 0 21 -62z m1882 -405
c156 -258 311 -512 344 -566 48 -79 62 -96 72 -85 7 7 149 240 316 518 167
278 316 526 333 553 l29 47 295 0 294 0 -18 -27 c-10 -16 -76 -122 -147 -238
-72 -115 -278 -450 -459 -742 -181 -293 -331 -539 -334 -546 -4 -10 658 -1102
899 -1485 l27 -42 -296 2 -297 3 -322 538 c-177 295 -324 539 -327 542 -2 3
-152 -240 -332 -540 l-329 -545 -293 0 c-162 0 -294 2 -294 4 0 4 84 142 590
965 184 299 334 548 332 553 -1 5 -216 355 -477 778 -261 423 -475 771 -475
774 0 3 132 6 293 6 l293 0 283 -467z m2461 -1073 l0 -1540 -270 0 -270 0 0
1540 0 1540 270 0 270 0 0 -1540z m2660 1280 l0 -260 -445 0 -445 0 0 -1280 0
-1280 -265 0 -265 0 0 1280 0 1280 -445 0 -445 0 0 260 0 260 1155 0 1155 0 0
-260z"/>
<path d="M2134 5995 c-3 -11 -92 -294 -198 -630 l-192 -610 385 -3 c211 -1
386 0 389 2 4 5 -366 1245 -375 1256 -2 2 -6 -5 -9 -15z"/>
</g>
</svg>
